# Vectary OBJ Export units=mm
mtllib Project Name.mtl 
o 000_Layer_1
g Layer_1
usemtl _100001
v -4.143 -5.448 0.478
v -4.143 -4.198 0.478
v -2.893 -4.198 0.478
v -2.893 -5.448 0.478
v -1.643 -4.198 0.478
v -1.643 -5.448 0.478
v -0.393 -4.198 0.478
v -0.393 -5.448 0.478
v 0.857 -4.198 0.478
v 0.857 -5.448 0.478
v 2.107 -4.198 0.478
v 2.107 -5.448 0.478
v 3.357 -4.198 0.478
v 3.357 -5.448 0.478
v 4.607 -4.198 0.478
v 4.607 -5.448 0.478
v 5.857 -4.198 0.478
v 5.857 -5.448 0.478
v -4.143 -2.948 0.478
v -2.893 -2.948 0.478
v -1.643 -2.948 0.478
v -0.393 -2.948 0.478
v 0.857 -2.948 0.478
v 2.107 -2.948 0.478
v 3.357 -2.948 0.478
v 4.607 -2.948 0.478
v 5.857 -2.948 0.478
v -4.143 -1.698 0.478
v -2.893 -1.698 0.478
v -1.643 -1.698 0.478
v -0.393 -1.698 0.478
v 0.857 -1.698 0.478
v 2.107 -1.698 0.478
v 3.357 -1.698 0.478
v 4.607 -1.698 0.478
v 5.857 -1.698 0.478
v -4.143 -0.448 0.478
v -2.893 -0.448 0.478
v -1.643 -0.448 0.478
v -0.393 -0.448 0.478
v 0.857 -0.448 0.478
v 2.107 -0.448 0.478
v 3.357 -0.448 0.478
v 4.607 -0.448 0.478
v 5.857 -0.448 0.478
v -4.143 0.802 0.478
v -2.893 0.802 0.478
v -1.643 0.802 0.478
v -0.393 0.802 0.478
v 0.857 0.802 0.478
v 2.107 0.802 0.478
v 3.357 0.802 0.478
v 4.607 0.802 0.478
v 5.857 0.802 0.478
v -4.143 2.052 0.478
v -2.893 2.052 0.478
v -1.643 2.052 0.478
v -0.393 2.052 0.478
v 0.857 2.052 0.478
v 2.107 2.052 0.478
v 3.357 2.052 0.478
v 4.607 2.052 0.478
v 5.857 2.052 0.478
v -4.143 3.302 0.478
v -2.893 3.302 0.478
v -1.643 3.302 0.478
v -0.393 3.302 0.478
v 0.857 3.302 0.478
v 2.107 3.302 0.478
v 3.357 3.302 0.478
v 4.607 3.302 0.478
v 5.857 3.302 0.478
v -4.143 4.552 0.478
v -2.893 4.552 0.478
v -1.643 4.552 0.478
v -0.393 4.552 0.478
v 0.857 4.552 0.478
v 2.107 4.552 0.478
v 3.357 4.552 0.478
v 4.607 4.552 0.478
v 5.857 4.552 0.478
v -4.143 -5.448 10.478
v -4.143 -4.198 10.478
v -2.893 -4.198 10.478
v -2.893 -5.448 10.478
v -1.643 -4.198 10.478
v -1.643 -5.448 10.478
v -0.393 -4.198 10.478
v -0.393 -5.448 10.478
v 0.857 -4.198 10.478
v 0.857 -5.448 10.478
v 2.107 -4.198 10.478
v 2.107 -5.448 10.478
v 3.357 -4.198 10.478
v 3.357 -5.448 10.478
v 4.607 -4.198 10.478
v 4.607 -5.448 10.478
v 5.857 -4.198 10.478
v 5.857 -5.448 10.478
v -4.143 -2.948 10.478
v -2.893 -2.948 10.478
v -1.643 -2.948 10.000
v -0.393 -2.948 10.000
v 0.857 -2.948 10.000
v 2.107 -2.948 10.000
v 3.357 -2.948 10.000
v 4.607 -2.948 10.478
v 5.857 -2.948 10.478
v -4.143 -1.698 10.478
v -2.893 -1.698 10.478
v -1.643 -1.698 10.000
v -0.393 -1.698 10.000
v 0.857 -1.698 10.000
v 2.107 -1.698 10.000
v 3.357 -1.698 10.000
v 4.607 -1.698 10.478
v 5.857 -1.698 10.478
v -4.143 -0.448 10.478
v -2.893 -0.448 10.478
v -1.643 -0.448 10.000
v -0.393 -0.448 10.000
v 0.857 -0.448 10.000
v 2.107 -0.448 10.000
v 3.357 -0.448 10.000
v 4.607 -0.448 10.478
v 5.857 -0.448 10.478
v -4.143 0.802 10.478
v -2.893 0.802 10.478
v -1.643 0.802 10.000
v -0.393 0.802 10.000
v 0.857 0.802 10.000
v 2.107 0.802 10.000
v 3.357 0.802 10.000
v 4.607 0.802 10.478
v 5.857 0.802 10.478
v -4.143 2.052 10.478
v -2.893 2.052 10.478
v -1.643 2.052 10.000
v -0.393 2.052 10.000
v 0.857 2.052 10.000
v 2.107 2.052 10.000
v 3.357 2.052 10.000
v 4.607 2.052 10.478
v 5.857 2.052 10.478
v -4.143 3.302 10.478
v -2.893 3.302 10.478
v -1.643 3.302 10.478
v -0.393 3.302 10.478
v 0.857 3.302 10.478
v 2.107 3.302 10.478
v 3.357 3.302 10.478
v 4.607 3.302 10.478
v 5.857 3.302 10.478
v -4.143 4.552 10.478
v -2.893 4.552 10.478
v -1.643 4.552 10.478
v -0.393 4.552 10.478
v 0.857 4.552 10.478
v 2.107 4.552 10.478
v 3.357 4.552 10.478
v 4.607 4.552 10.478
v 5.857 4.552 10.478
vn 0.000 0.000 -1.000
vn -1.000 0.000 0.000
vn 0.000 -1.000 0.000
vn 0.000 0.000 -1.000
vn -1.000 0.000 0.000
vn 0.000 0.000 -1.000
vn 0.000 0.000 -1.000
vn 0.000 -1.000 0.000
vn 0.000 0.000 -1.000
vn 0.000 0.000 -1.000
vn 0.000 -1.000 0.000
vn 0.000 0.000 -1.000
vn 0.000 0.000 -1.000
vn 0.000 -1.000 0.000
vn 0.000 0.000 -1.000
vn 0.000 0.000 -1.000
vn 0.000 -1.000 0.000
vn 0.000 0.000 -1.000
vn 0.000 0.000 -1.000
vn 0.000 -1.000 0.000
vn 0.000 0.000 -1.000
vn 0.000 0.000 -1.000
vn 0.000 -1.000 0.000
vn 0.000 0.000 -1.000
vn 0.000 0.000 -1.000
vn 0.000 -1.000 0.000
vn 0.000 0.000 -1.000
vn 1.000 0.000 0.000
vn 0.000 0.000 -1.000
vn 0.000 -1.000 0.000
vn 1.000 0.000 0.000
vn 0.000 0.000 -1.000
vn -1.000 0.000 0.000
vn 0.000 0.000 -1.000
vn 0.000 0.000 -1.000
vn 0.000 0.000 -1.000
vn 0.000 0.000 -1.000
vn 0.000 0.000 -1.000
vn 0.000 0.000 -1.000
vn 0.000 0.000 -1.000
vn 0.000 0.000 -1.000
vn 1.000 0.000 0.000
vn 0.000 0.000 -1.000
vn -1.000 0.000 0.000
vn 0.000 0.000 -1.000
vn 0.000 0.000 -1.000
vn 0.000 0.000 -1.000
vn 0.000 0.000 -1.000
vn 0.000 0.000 -1.000
vn 0.000 0.000 -1.000
vn 0.000 0.000 -1.000
vn 0.000 0.000 -1.000
vn 1.000 0.000 0.000
vn 0.000 0.000 -1.000
vn -1.000 0.000 0.000
vn 0.000 0.000 -1.000
vn 0.000 0.000 -1.000
vn 0.000 0.000 -1.000
vn 0.000 0.000 -1.000
vn 0.000 0.000 -1.000
vn 0.000 0.000 -1.000
vn 0.000 0.000 -1.000
vn 0.000 0.000 -1.000
vn 1.000 0.000 0.000
vn 0.000 0.000 -1.000
vn -1.000 0.000 0.000
vn 0.000 0.000 -1.000
vn 0.000 0.000 -1.000
vn 0.000 0.000 -1.000
vn 0.000 0.000 -1.000
vn 0.000 0.000 -1.000
vn 0.000 0.000 -1.000
vn 0.000 0.000 -1.000
vn 0.000 0.000 -1.000
vn 1.000 0.000 0.000
vn 0.000 0.000 -1.000
vn -1.000 0.000 0.000
vn 0.000 0.000 -1.000
vn 0.000 0.000 -1.000
vn 0.000 0.000 -1.000
vn 0.000 0.000 -1.000
vn 0.000 0.000 -1.000
vn 0.000 0.000 -1.000
vn 0.000 0.000 -1.000
vn 0.000 0.000 -1.000
vn 1.000 0.000 0.000
vn 0.000 0.000 -1.000
vn -1.000 0.000 0.000
vn 0.000 0.000 -1.000
vn 0.000 0.000 -1.000
vn 0.000 0.000 -1.000
vn 0.000 0.000 -1.000
vn 0.000 0.000 -1.000
vn 0.000 0.000 -1.000
vn 0.000 0.000 -1.000
vn 0.000 0.000 -1.000
vn 1.000 0.000 0.000
vn 0.000 0.000 -1.000
vn -1.000 0.000 0.000
vn 0.000 1.000 0.000
vn 0.000 0.000 -1.000
vn 0.000 1.000 0.000
vn 0.000 0.000 -1.000
vn 0.000 1.000 0.000
vn 0.000 0.000 -1.000
vn 0.000 1.000 0.000
vn 0.000 0.000 -1.000
vn 0.000 1.000 0.000
vn 0.000 0.000 -1.000
vn 0.000 1.000 0.000
vn 0.000 0.000 -1.000
vn 0.000 1.000 0.000
vn 0.000 0.000 -1.000
vn 0.000 1.000 0.000
vn 0.000 0.000 -1.000
vn 0.000 1.000 0.000
vn 1.000 0.000 0.000
vn 0.000 0.000 1.000
vn -1.000 0.000 0.000
vn 0.000 -1.000 0.000
vn 0.000 0.000 1.000
vn -1.000 0.000 0.000
vn 0.046 0.046 0.998
vn 0.000 0.000 1.000
vn 0.000 -1.000 0.000
vn 0.047 0.137 0.989
vn 0.000 0.000 1.000
vn 0.000 -1.000 0.000
vn 0.000 0.182 0.983
vn 0.000 0.000 1.000
vn 0.000 -1.000 0.000
vn 0.000 0.182 0.983
vn 0.000 0.000 1.000
vn 0.000 -1.000 0.000
vn 0.000 0.182 0.983
vn 0.000 0.000 1.000
vn 0.000 -1.000 0.000
vn -0.047 0.137 0.989
vn 0.000 0.000 1.000
vn 0.000 -1.000 0.000
vn -0.046 0.046 0.998
vn 0.000 0.000 1.000
vn 0.000 -1.000 0.000
vn 0.000 0.000 1.000
vn 1.000 0.000 0.000
vn 0.000 0.000 1.000
vn 0.000 -1.000 0.000
vn 1.000 0.000 0.000
vn 0.000 0.000 1.000
vn -1.000 0.000 0.000
vn 0.137 0.047 0.989
vn 0.139 0.139 0.981
vn 0.000 0.182 0.983
vn 0.000 0.182 0.983
vn 0.000 0.182 0.983
vn -0.139 0.139 0.981
vn -0.137 0.047 0.989
vn 0.000 0.000 1.000
vn 1.000 0.000 0.000
vn 0.000 0.000 1.000
vn -1.000 0.000 0.000
vn 0.182 0.000 0.983
vn 0.182 0.000 0.983
vn 0.000 0.000 1.000
vn 0.000 0.000 1.000
vn 0.000 0.000 1.000
vn -0.182 0.000 0.983
vn -0.182 0.000 0.983
vn 0.000 0.000 1.000
vn 1.000 0.000 0.000
vn 0.000 0.000 1.000
vn -1.000 0.000 0.000
vn 0.182 0.000 0.983
vn 0.182 0.000 0.983
vn 0.000 0.000 1.000
vn 0.000 0.000 1.000
vn 0.000 0.000 1.000
vn -0.182 0.000 0.983
vn -0.182 0.000 0.983
vn 0.000 0.000 1.000
vn 1.000 0.000 0.000
vn 0.000 0.000 1.000
vn -1.000 0.000 0.000
vn 0.182 0.000 0.983
vn 0.182 0.000 0.983
vn 0.000 0.000 1.000
vn 0.000 0.000 1.000
vn 0.000 0.000 1.000
vn -0.182 0.000 0.983
vn -0.182 0.000 0.983
vn 0.000 0.000 1.000
vn 1.000 0.000 0.000
vn 0.000 0.000 1.000
vn -1.000 0.000 0.000
vn 0.137 -0.047 0.989
vn 0.139 -0.139 0.981
vn 0.000 -0.182 0.983
vn 0.000 -0.182 0.983
vn 0.000 -0.182 0.983
vn -0.139 -0.139 0.981
vn -0.137 -0.047 0.989
vn 0.000 0.000 1.000
vn 1.000 0.000 0.000
vn 0.000 0.000 1.000
vn -1.000 0.000 0.000
vn 0.046 -0.046 0.998
vn 0.047 -0.137 0.989
vn 0.000 -0.182 0.983
vn 0.000 -0.182 0.983
vn 0.000 -0.182 0.983
vn -0.047 -0.137 0.989
vn -0.046 -0.046 0.998
vn 0.000 0.000 1.000
vn 1.000 0.000 0.000
vn 0.000 0.000 1.000
vn -1.000 0.000 0.000
vn 0.000 1.000 0.000
vn 0.000 0.000 1.000
vn 0.000 1.000 0.000
vn 0.000 0.000 1.000
vn 0.000 1.000 0.000
vn 0.000 0.000 1.000
vn 0.000 1.000 0.000
vn 0.000 0.000 1.000
vn 0.000 1.000 0.000
vn 0.000 0.000 1.000
vn 0.000 1.000 0.000
vn 0.000 0.000 1.000
vn 0.000 1.000 0.000
vn 0.000 0.000 1.000
vn 0.000 1.000 0.000
vn 0.000 0.000 1.000
vn 0.000 1.000 0.000
vn 1.000 0.000 0.000
f 1//1 2//4 3//6 4//7 
f 4//7 3//6 5//9 6//10 
f 6//10 5//9 7//12 8//13 
f 8//13 7//12 9//15 10//16 
f 10//16 9//15 11//18 12//19 
f 12//19 11//18 13//21 14//22 
f 14//22 13//21 15//24 16//25 
f 16//25 15//24 17//27 18//29 
f 2//4 19//32 20//34 3//6 
f 3//6 20//34 21//35 5//9 
f 5//9 21//35 22//36 7//12 
f 7//12 22//36 23//37 9//15 
f 9//15 23//37 24//38 11//18 
f 11//18 24//38 25//39 13//21 
f 13//21 25//39 26//40 15//24 
f 15//24 26//40 27//41 17//27 
f 19//32 28//43 29//45 20//34 
f 20//34 29//45 30//46 21//35 
f 21//35 30//46 31//47 22//36 
f 22//36 31//47 32//48 23//37 
f 23//37 32//48 33//49 24//38 
f 24//38 33//49 34//50 25//39 
f 25//39 34//50 35//51 26//40 
f 26//40 35//51 36//52 27//41 
f 28//43 37//54 38//56 29//45 
f 29//45 38//56 39//57 30//46 
f 30//46 39//57 40//58 31//47 
f 31//47 40//58 41//59 32//48 
f 32//48 41//59 42//60 33//49 
f 33//49 42//60 43//61 34//50 
f 34//50 43//61 44//62 35//51 
f 35//51 44//62 45//63 36//52 
f 37//54 46//65 47//67 38//56 
f 38//56 47//67 48//68 39//57 
f 39//57 48//68 49//69 40//58 
f 40//58 49//69 50//70 41//59 
f 41//59 50//70 51//71 42//60 
f 42//60 51//71 52//72 43//61 
f 43//61 52//72 53//73 44//62 
f 44//62 53//73 54//74 45//63 
f 46//65 55//76 56//78 47//67 
f 47//67 56//78 57//79 48//68 
f 48//68 57//79 58//80 49//69 
f 49//69 58//80 59//81 50//70 
f 50//70 59//81 60//82 51//71 
f 51//71 60//82 61//83 52//72 
f 52//72 61//83 62//84 53//73 
f 53//73 62//84 63//85 54//74 
f 55//76 64//87 65//89 56//78 
f 56//78 65//89 66//90 57//79 
f 57//79 66//90 67//91 58//80 
f 58//80 67//91 68//92 59//81 
f 59//81 68//92 69//93 60//82 
f 60//82 69//93 70//94 61//83 
f 61//83 70//94 71//95 62//84 
f 62//84 71//95 72//96 63//85 
f 64//87 73//98 74//101 65//89 
f 65//89 74//101 75//103 66//90 
f 66//90 75//103 76//105 67//91 
f 67//91 76//105 77//107 68//92 
f 68//92 77//107 78//109 69//93 
f 69//93 78//109 79//111 70//94 
f 70//94 79//111 80//113 71//95 
f 71//95 80//113 81//115 72//96 
f 85//124 84//123 83//121 82//118 
f 87//127 86//126 84//123 85//124 
f 89//130 88//129 86//126 87//127 
f 91//133 90//132 88//129 89//130 
f 93//136 92//135 90//132 91//133 
f 95//139 94//138 92//135 93//136 
f 97//142 96//141 94//138 95//139 
f 99//146 98//144 96//141 97//142 
f 84//123 101//151 100//149 83//121 
f 86//126 102//152 101//151 84//123 
f 88//129 103//153 102//152 86//126 
f 90//132 104//154 103//153 88//129 
f 92//135 105//155 104//154 90//132 
f 94//138 106//156 105//155 92//135 
f 96//141 107//157 106//156 94//138 
f 98//144 108//158 107//157 96//141 
f 101//151 110//162 109//160 100//149 
f 102//152 111//163 110//162 101//151 
f 103//153 112//164 111//163 102//152 
f 104//154 113//165 112//164 103//153 
f 105//155 114//166 113//165 104//154 
f 106//156 115//167 114//166 105//155 
f 107//157 116//168 115//167 106//156 
f 108//158 117//169 116//168 107//157 
f 110//162 119//173 118//171 109//160 
f 111//163 120//174 119//173 110//162 
f 112//164 121//175 120//174 111//163 
f 113//165 122//176 121//175 112//164 
f 114//166 123//177 122//176 113//165 
f 115//167 124//178 123//177 114//166 
f 116//168 125//179 124//178 115//167 
f 117//169 126//180 125//179 116//168 
f 119//173 128//184 127//182 118//171 
f 120//174 129//185 128//184 119//173 
f 121//175 130//186 129//185 120//174 
f 122//176 131//187 130//186 121//175 
f 123//177 132//188 131//187 122//176 
f 124//178 133//189 132//188 123//177 
f 125//179 134//190 133//189 124//178 
f 126//180 135//191 134//190 125//179 
f 128//184 137//195 136//193 127//182 
f 129//185 138//196 137//195 128//184 
f 130//186 139//197 138//196 129//185 
f 131//187 140//198 139//197 130//186 
f 132//188 141//199 140//198 131//187 
f 133//189 142//200 141//199 132//188 
f 134//190 143//201 142//200 133//189 
f 135//191 144//202 143//201 134//190 
f 137//195 146//206 145//204 136//193 
f 138//196 147//207 146//206 137//195 
f 139//197 148//208 147//207 138//196 
f 140//198 149//209 148//208 139//197 
f 141//199 150//210 149//209 140//198 
f 142//200 151//211 150//210 141//199 
f 143//201 152//212 151//211 142//200 
f 144//202 153//213 152//212 143//201 
f 146//206 155//218 154//215 145//204 
f 147//207 156//220 155//218 146//206 
f 148//208 157//222 156//220 147//207 
f 149//209 158//224 157//222 148//208 
f 150//210 159//226 158//224 149//209 
f 151//211 160//228 159//226 150//210 
f 152//212 161//230 160//228 151//211 
f 153//213 162//232 161//230 152//212 
f 1//2 82//119 83//122 2//5 
f 1//3 4//8 85//125 82//120 
f 4//8 6//11 87//128 85//125 
f 6//11 8//14 89//131 87//128 
f 8//14 10//17 91//134 89//131 
f 10//17 12//20 93//137 91//134 
f 12//20 14//23 95//140 93//137 
f 14//23 16//26 97//143 95//140 
f 16//26 18//30 99//147 97//143 
f 17//28 98//145 99//148 18//31 
f 2//5 83//122 100//150 19//33 
f 27//42 108//159 98//145 17//28 
f 19//33 100//150 109//161 28//44 
f 36//53 117//170 108//159 27//42 
f 28//44 109//161 118//172 37//55 
f 45//64 126//181 117//170 36//53 
f 37//55 118//172 127//183 46//66 
f 54//75 135//192 126//181 45//64 
f 46//66 127//183 136//194 55//77 
f 63//86 144//203 135//192 54//75 
f 55//77 136//194 145//205 64//88 
f 72//97 153//214 144//203 63//86 
f 64//88 145//205 154//216 73//99 
f 154//217 155//219 74//102 73//100 
f 155//219 156//221 75//104 74//102 
f 156//221 157//223 76//106 75//104 
f 157//223 158//225 77//108 76//106 
f 158//225 159//227 78//110 77//108 
f 159//227 160//229 79//112 78//110 
f 160//229 161//231 80//114 79//112 
f 161//231 162//233 81//116 80//114 
f 81//117 162//234 153//214 72//97 
